<svg xmlns="http://www.w3.org/2000/svg" viewBox="0 0 36.72 38.49" role="img" aria-labelledby="icon-svg-contact" focusable="false"><title id="icon-svg-contact">Contact</title><path fill='#5c2d91' d="m10.27 38.49c-0.86 0-1.72-0.17-2.55-0.5-1.67-0.68-2.97-1.98-3.66-3.64l-1.72-4.15-1.79-4.16c-0.71-1.66-0.73-3.49-0.06-5.16s1.96-2.98 3.62-3.68l1.9-0.81c0.53-0.22 1.11-0.23 1.64-0.01s0.95 0.63 1.17 1.15l1.33 3.16c0.46 1.09-0.05 2.35-1.14 2.81l-1.94 0.82c-0.07 0.03-0.1 0.11-0.07 0.18l2.67 6.32c0.02 0.04 0.05 0.07 0.08 0.08 0.02 0.01 0.06 0.02 0.11 0l1.95-0.83c0.53-0.22 1.11-0.23 1.64-0.01 0.53 0.21 0.95 0.63 1.17 1.15l1.32 3.11c0.22 0.53 0.23 1.11 0.01 1.64s-0.62 0.95-1.15 1.17l-1.91 0.81c-0.84 0.37-1.73 0.55-2.62 0.55zm-3.42-20.28c-0.02 0-0.04 0-0.06 0.01l-1.9 0.81c-1.17 0.49-2.07 1.41-2.54 2.59-0.47 1.17-0.46 2.46 0.04 3.63l1.79 4.17 1.73 4.16c0.49 1.17 1.4 2.08 2.58 2.56 1.17 0.48 2.46 0.47 3.63-0.02l1.91-0.81c0.07-0.03 0.11-0.12 0.08-0.19l-1.33-3.12c-0.02-0.05-0.05-0.07-0.08-0.08-0.02-0.01-0.06-0.02-0.11 0l-1.95 0.83c-0.53 0.22-1.11 0.23-1.64 0.01s-0.95-0.63-1.17-1.15l-2.67-6.32c-0.46-1.09 0.05-2.35 1.14-2.82l1.94-0.82c0.07-0.03 0.11-0.12 0.08-0.19l-1.34-3.16c-0.02-0.05-0.05-0.07-0.08-0.08-0.01 0-0.03-0.01-0.05-0.01z"></path><path d="m35.72 27.27c-0.31 0-0.6-0.14-0.79-0.39l-4.88-6.38c-0.06-0.07-0.14-0.11-0.23-0.11h-13.82c-2.33 0-4.22-1.89-4.22-4.22v-13.88c0-1.26 1.03-2.29 2.29-2.29h18.43c2.33 0 4.22 1.89 4.22 4.22v22.05c0 0.43-0.27 0.81-0.68 0.95-0.1 0.04-0.21 0.05-0.32 0.05zm-21.65-25.27c-0.16 0-0.29 0.13-0.29 0.29v13.87c0 1.23 1 2.22 2.22 2.22h13.82c0.71 0 1.39 0.34 1.82 0.9l3.08 4.04v-19.1c0-1.22-0.99-2.22-2.22-2.22h-18.43z"></path><path d="m19.81 9.38c0.31 0.31 0.47 0.68 0.47 1.12s-0.16 0.81-0.47 1.12-0.69 0.47-1.12 0.47-0.81-0.16-1.12-0.47-0.47-0.68-0.47-1.12 0.16-0.81 0.47-1.12 0.69-0.47 1.12-0.47 0.81 0.16 1.12 0.47z"></path><path d="m25.37 9.38c0.31 0.31 0.47 0.68 0.47 1.12s-0.16 0.81-0.47 1.12-0.69 0.47-1.12 0.47-0.81-0.16-1.12-0.47-0.47-0.68-0.47-1.12 0.16-0.81 0.47-1.12 0.69-0.47 1.12-0.47 0.81 0.16 1.12 0.47z"></path><path d="m30.94 9.38c0.31 0.31 0.47 0.68 0.47 1.12s-0.16 0.81-0.47 1.12-0.69 0.47-1.12 0.47c-0.44 0-0.81-0.16-1.12-0.47s-0.47-0.68-0.47-1.12 0.16-0.81 0.47-1.12 0.69-0.47 1.12-0.47 0.81 0.16 1.12 0.47z"></path></svg>