<svg xmlns="http://www.w3.org/2000/svg" viewBox="0 0 44.91 44.91" role="img" aria-labelledby="proximus-logo" focusable="false"><title id="proximus-logo">Back to the home page</title><path fill='#5c2d91' d="M40.78 14.83c.59-.44 3.82-3.05 4.11-6.75A7.91 7.91 0 0 0 37.15 0h-.32c-3.71.28-6.31 3.52-6.76 4.11a24 24 0 0 0-4.31 10.06 36.49 36.49 0 0 1-6.61 0 24.16 24.16 0 0 0-4.32-10.04C14.39 3.54 11.78.3 8.07 0A7.89 7.89 0 0 0 0 7.76a1.71 1.71 0 0 0 0 .32c.28 3.71 3.51 6.31 4.11 6.76a24 24 0 0 0 10.06 4.31 36.49 36.49 0 0 1 0 6.61 24 24 0 0 0-10.04 4.32c-.6.44-3.83 3-4.11 6.75a7.89 7.89 0 0 0 7.74 8.06h.31c3.71-.28 6.31-3.52 6.76-4.11a24 24 0 0 0 4.31-10.06 36.49 36.49 0 0 1 6.61 0 24 24 0 0 0 4.32 10.06c.44.59 3 3.82 6.75 4.11a7.9 7.9 0 0 0 8.06-7.74 1.71 1.71 0 0 0 0-.32c-.28-3.71-3.51-6.31-4.11-6.76a24 24 0 0 0-10.06-4.31c-.1-1.08-.15-2.19-.15-3.31s.06-2.23.15-3.3a24.07 24.07 0 0 0 10.07-4.32zm-6.29-7.22l.08-.1a5 5 0 0 1 2.7-1.89c.16 0 .6 0 1.33.69s.69 1.16.68 1.33a4.94 4.94 0 0 1-1.89 2.7l-.1.07a16.17 16.17 0 0 1-5.44 2.64 16.27 16.27 0 0 1 2.64-5.44zm-21.44 5.44a16.24 16.24 0 0 1-5.44-2.63l-.1-.08a5 5 0 0 1-1.89-2.7c0-.16 0-.6.69-1.33s1.16-.69 1.33-.68a5 5 0 0 1 2.7 1.89l.07.1a16.17 16.17 0 0 1 2.64 5.44zM10.41 37.3l-.07.1a4.92 4.92 0 0 1-2.7 1.88c-.17 0-.61 0-1.33-.68s-.69-1.16-.68-1.33a5 5 0 0 1 1.88-2.7l.1-.07a16.36 16.36 0 0 1 5.44-2.64 16.24 16.24 0 0 1-2.63 5.44zM25 25c-.84-.05-1.7-.08-2.57-.08s-1.72 0-2.56.08c.05-.84.08-1.7.08-2.57s0-1.72-.08-2.56a39.92 39.92 0 0 0 5.13 0c0 .84-.07 1.7-.08 2.57S25 24.18 25 25zm6.84 6.84a16.15 16.15 0 0 1 5.44 2.63l.1.08a4.94 4.94 0 0 1 1.89 2.7c0 .17 0 .61-.68 1.33s-1.17.69-1.33.68a4.94 4.94 0 0 1-2.7-1.88l-.08-.1a16.34 16.34 0 0 1-2.63-5.44z"></path></svg>